<svg width="260" height="382" viewBox="0 0 260 382" fill="none" xmlns="http://www.w3.org/2000/svg">
<g filter="url(#filter0_d)">
<g clip-path="url(#clip0)">
<rect x="30" y="181.5" width="311" height="192" rx="17" transform="rotate(-30 30 181.5)" fill="url(#paint0_linear)"/>
<path fill-rule="evenodd" clip-rule="evenodd" d="M70.6604 187.778C72.4676 186.734 74.5249 186.52 76.3916 187.016L77.8942 181.44C76.2039 180.988 74.4401 180.874 72.7039 181.104C70.9677 181.335 69.2933 181.905 67.777 182.783C61.3932 186.469 59.1973 194.617 62.8724 200.983C65.1472 204.923 69.1384 207.254 73.3635 207.587L67.8811 198.091C65.7986 194.484 67.043 189.866 70.6604 187.778ZM78.202 200.84C77.3146 201.352 76.3672 201.664 75.4115 201.791L78.4225 207.006C79.3319 206.719 80.2252 206.331 81.0855 205.835C84.2266 204.021 86.3514 201.126 87.2639 197.896L81.6835 196.409C81.1395 198.279 79.8916 199.867 78.202 200.84Z" fill="white"/>
<path fill-rule="evenodd" clip-rule="evenodd" d="M75.8729 196.806C76.5135 196.436 76.9566 195.857 77.1718 195.207L74.3837 194.464L75.1776 191.52C74.7188 191.398 74.2368 191.392 73.7743 191.501C73.3119 191.61 72.8832 191.831 72.5262 192.145C72.1692 192.459 71.8949 192.855 71.7276 193.299C71.5603 193.744 71.5051 194.222 71.567 194.692C71.6288 195.162 71.8058 195.609 72.0822 195.994C72.3586 196.379 72.7259 196.69 73.1517 196.899C73.5775 197.108 74.0485 197.209 74.5232 197.193C74.9979 197.176 75.4615 197.044 75.8731 196.806" fill="white"/>
<path fill-rule="evenodd" clip-rule="evenodd" d="M75.8729 196.806C76.5135 196.436 76.9566 195.857 77.1718 195.207L74.3837 194.464L75.1776 191.52C74.7188 191.398 74.2368 191.392 73.7743 191.501C73.3119 191.61 72.8832 191.831 72.5262 192.145C72.1692 192.459 71.8949 192.855 71.7276 193.299C71.5603 193.744 71.5051 194.222 71.567 194.692C71.6288 195.162 71.8058 195.609 72.0822 195.994C72.3586 196.379 72.7259 196.69 73.1517 196.899C73.5775 197.108 74.0485 197.209 74.5232 197.193C74.9979 197.176 75.4615 197.044 75.8731 196.806" fill="white"/>
<path fill-rule="evenodd" clip-rule="evenodd" d="M75.8729 196.806C76.5135 196.436 76.9566 195.857 77.1718 195.207L74.3837 194.464L75.1776 191.52C74.7188 191.398 74.2368 191.392 73.7743 191.501C73.3119 191.61 72.8832 191.831 72.5262 192.145C72.1692 192.459 71.8949 192.855 71.7276 193.299C71.5603 193.744 71.5051 194.222 71.567 194.692C71.6288 195.162 71.8058 195.609 72.0822 195.994C72.3586 196.379 72.7259 196.69 73.1517 196.899C73.5775 197.108 74.0485 197.209 74.5232 197.193C74.9979 197.176 75.4615 197.044 75.8731 196.806" fill="white"/>
<path fill-rule="evenodd" clip-rule="evenodd" d="M75.8729 196.806C76.5135 196.436 76.9566 195.857 77.1718 195.207L74.3837 194.464L75.1776 191.52C74.7188 191.398 74.2368 191.392 73.7743 191.501C73.3119 191.61 72.8832 191.831 72.5262 192.145C72.1692 192.459 71.8949 192.855 71.7276 193.299C71.5603 193.744 71.5051 194.222 71.567 194.692C71.6288 195.162 71.8058 195.609 72.0822 195.994C72.3586 196.379 72.7259 196.69 73.1517 196.899C73.5775 197.108 74.0485 197.209 74.5232 197.193C74.9979 197.176 75.4615 197.044 75.8731 196.806" fill="white"/>
<path fill-rule="evenodd" clip-rule="evenodd" d="M77.1717 195.208C77.3005 194.822 77.346 194.414 77.3054 194.01C77.2647 193.606 77.1387 193.215 76.9357 192.863C76.7463 192.534 76.4934 192.246 76.1916 192.015C75.8897 191.785 75.545 191.616 75.1772 191.52L74.3836 194.465L77.1717 195.208Z" fill="white"/>
<path fill-rule="evenodd" clip-rule="evenodd" d="M77.172 195.208C77.3007 194.822 77.3463 194.414 77.3056 194.01C77.2649 193.606 77.139 193.215 76.936 192.863C76.7466 192.534 76.4936 192.246 76.1918 192.015C75.89 191.785 75.5452 191.616 75.1775 191.52L74.3839 194.465L77.172 195.208Z" fill="white"/>
<path d="M98.5355 183.198C99.0695 184.3 99.1575 185.36 98.7992 186.377C98.4455 187.392 97.6905 188.233 96.5342 188.901C95.2696 189.631 94.0293 189.783 92.8134 189.356C91.5994 188.922 90.5648 187.965 89.7096 186.484L89.3626 185.883C88.8168 184.937 88.503 184.008 88.4213 183.094C88.3397 182.181 88.4978 181.354 88.8956 180.614C89.2954 179.867 89.9063 179.257 90.7284 178.782C91.8666 178.125 92.9589 177.899 94.0054 178.105C95.0519 178.312 95.9465 178.933 96.6892 179.969L94.6566 181.142C94.2404 180.536 93.7969 180.18 93.326 180.074C92.857 179.96 92.3108 180.083 91.6875 180.443C91.01 180.834 90.6422 181.371 90.5842 182.053C90.5281 182.727 90.7893 183.576 91.3677 184.599L91.7966 185.342C92.41 186.404 93.0188 187.088 93.6228 187.394C94.2313 187.697 94.8834 187.648 95.579 187.246C96.2068 186.884 96.5924 186.472 96.7358 186.011C96.8811 185.543 96.8035 184.996 96.5029 184.371L98.5355 183.198Z" fill="white"/>
<path d="M102.59 177.922C102.302 178.04 102.057 178.157 101.854 178.275C101.113 178.702 100.772 179.232 100.83 179.865L103.591 184.647L101.632 185.777L97.4137 178.47L99.2633 177.402L99.8205 178.242C99.8262 177.344 100.177 176.695 100.872 176.293C101.089 176.168 101.309 176.08 101.533 176.029L102.59 177.922Z" fill="white"/>
<path d="M107.965 178.438L106.696 173.111L108.796 171.898L110.723 182.042L110.782 182.52C110.895 183.728 110.448 184.622 109.441 185.204C109.156 185.368 108.842 185.492 108.499 185.576L107.646 184.097L107.948 183.932C108.318 183.718 108.561 183.503 108.677 183.286C108.797 183.066 108.834 182.796 108.787 182.475L108.67 181.741L101.872 175.896L103.979 174.68L107.965 178.438Z" fill="white"/>
<path d="M118.316 171.364C118.966 172.489 119.229 173.54 119.107 174.518C118.986 175.488 118.49 176.224 117.619 176.728C116.878 177.155 116.131 177.244 115.379 176.994L117.367 180.438L115.409 181.569L109.568 171.452L111.384 170.404L111.865 171.081C112.012 170.24 112.467 169.599 113.23 169.158C114.134 168.637 115.028 168.564 115.914 168.941C116.8 169.318 117.581 170.092 118.257 171.262L118.316 171.364ZM116.276 172.352C115.883 171.672 115.459 171.218 115.001 170.99C114.549 170.759 114.092 170.776 113.632 171.042C113.017 171.397 112.73 171.875 112.77 172.476L114.497 175.468C115.015 175.812 115.581 175.806 116.195 175.451C117.13 174.912 117.157 173.878 116.276 172.352Z" fill="white"/>
<path d="M118.694 163.789L119.731 165.585L120.984 164.861L121.811 166.293L120.558 167.017L122.663 170.663C122.819 170.934 122.983 171.097 123.154 171.154C123.326 171.211 123.558 171.155 123.852 170.986C124.069 170.86 124.252 170.734 124.4 170.606L125.254 172.085C124.938 172.424 124.577 172.71 124.17 172.945C122.797 173.738 121.698 173.451 120.873 172.084L118.6 168.147L117.529 168.765L116.703 167.333L117.773 166.715L116.736 164.919L118.694 163.789Z" fill="white"/>
<path d="M123.638 168.111C123.219 167.386 122.986 166.659 122.939 165.93C122.891 165.201 123.04 164.53 123.384 163.917C123.733 163.301 124.256 162.793 124.951 162.391C125.94 161.82 126.921 161.656 127.892 161.899C128.869 162.14 129.692 162.758 130.362 163.751L130.664 164.243C131.311 165.364 131.517 166.446 131.282 167.488C131.044 168.526 130.396 169.35 129.34 169.96C128.283 170.571 127.243 170.721 126.221 170.41C125.203 170.098 124.359 169.36 123.688 168.199L123.638 168.111ZM125.677 167.122C126.078 167.816 126.515 168.271 126.991 168.489C127.463 168.703 127.943 168.669 128.431 168.387C128.905 168.113 129.172 167.719 129.23 167.205C129.286 166.687 129.084 166.029 128.624 165.232C128.232 164.552 127.794 164.102 127.312 163.882C126.83 163.663 126.347 163.692 125.864 163.971C125.385 164.248 125.122 164.648 125.076 165.173C125.027 165.694 125.228 166.343 125.677 167.122Z" fill="white"/>
<path d="M134.097 162.414L136.098 165.879L134.065 167.052L128.388 157.219L132.236 154.997C132.977 154.57 133.706 154.329 134.422 154.276C135.142 154.22 135.798 154.355 136.389 154.68C136.978 155 137.455 155.478 137.822 156.113C138.378 157.076 138.485 158.029 138.144 158.97C137.804 159.905 137.049 160.71 135.879 161.385L134.097 162.414ZM133.15 160.773L134.966 159.725C135.503 159.414 135.839 159.052 135.974 158.638C136.113 158.222 136.047 157.78 135.777 157.312C135.499 156.83 135.131 156.522 134.675 156.39C134.219 156.257 133.738 156.331 133.231 156.611L131.368 157.687L133.15 160.773Z" fill="white"/>
<path d="M147.06 159.55C146.868 159.426 146.677 159.246 146.485 159.008C146.315 159.808 145.851 160.428 145.092 160.866C144.374 161.281 143.658 161.418 142.944 161.277C142.236 161.134 141.699 160.748 141.335 160.117C140.888 159.343 140.832 158.583 141.166 157.838C141.505 157.09 142.218 156.399 143.304 155.766L144.205 155.246L143.963 154.827C143.768 154.49 143.524 154.27 143.231 154.169C142.942 154.066 142.611 154.122 142.236 154.339C141.906 154.529 141.692 154.758 141.593 155.025C141.499 155.289 141.531 155.559 141.69 155.834L139.732 156.964C139.487 156.541 139.392 156.074 139.446 155.562C139.5 155.051 139.708 154.556 140.07 154.076C140.429 153.593 140.907 153.179 141.503 152.835C142.406 152.313 143.253 152.127 144.044 152.277C144.837 152.419 145.47 152.9 145.943 153.72L147.772 156.887C148.177 157.578 148.577 158.046 148.972 158.293L149.038 158.407L147.06 159.55ZM144.657 159.127C144.946 158.96 145.176 158.743 145.347 158.476C145.516 158.205 145.596 157.927 145.589 157.643L144.864 156.387L144.132 156.81C143.152 157.376 142.825 158.014 143.152 158.726L143.211 158.845C143.352 159.088 143.553 159.239 143.816 159.297C144.078 159.356 144.359 159.299 144.657 159.127Z" fill="white"/>
<path d="M151.285 153.427L150.016 148.1L152.116 146.887L154.043 157.031L154.103 157.509C154.215 158.717 153.768 159.611 152.761 160.193C152.477 160.357 152.163 160.481 151.82 160.565L150.966 159.086L151.268 158.921C151.638 158.707 151.881 158.492 151.997 158.275C152.117 158.055 152.154 157.785 152.107 157.464L151.99 156.73L145.192 150.885L147.299 149.669L151.285 153.427Z" fill="white"/>
<path d="M109.298 260.721L111.039 259.716L112.118 261.585L110.377 262.59L112.17 265.695L109.834 267.044L108.041 263.939L101.992 267.431L101.106 266.051L101.699 253.133L104.113 251.739L109.298 260.721ZM103.298 264.185L106.962 262.07L103.597 256.242L103.601 256.649L103.298 264.185Z" fill="white" fill-opacity="0.81"/>
<path d="M122.571 251.856C123.729 253.863 124.225 255.596 124.059 257.055C123.896 258.504 123.045 259.672 121.506 260.561C119.993 261.434 118.566 261.598 117.225 261.051C115.887 260.495 114.645 259.248 113.501 257.31L112.106 254.895C110.948 252.888 110.454 251.167 110.625 249.731C110.802 248.291 111.663 247.125 113.208 246.233C114.74 245.348 116.164 245.178 117.478 245.723C118.799 246.264 120.032 247.503 121.176 249.441L122.571 251.856ZM118.729 250.598C117.973 249.288 117.24 248.434 116.53 248.034C115.817 247.628 115.069 247.65 114.287 248.102C113.524 248.542 113.131 249.157 113.108 249.946C113.081 250.728 113.412 251.738 114.101 252.976L115.927 256.139C116.68 257.443 117.424 258.308 118.158 258.737C118.892 259.165 119.65 259.153 120.432 258.701C121.183 258.268 121.567 257.654 121.587 256.859C121.603 256.057 121.257 255.022 120.549 253.752L118.729 250.598Z" fill="white" fill-opacity="0.81"/>
<path d="M135.142 244.598C136.3 246.605 136.797 248.338 136.63 249.797C136.467 251.246 135.616 252.414 134.077 253.303C132.565 254.176 131.138 254.34 129.796 253.793C128.458 253.237 127.217 251.99 126.072 250.052L124.678 247.637C123.519 245.63 123.025 243.909 123.196 242.473C123.374 241.033 124.235 239.867 125.78 238.975C127.312 238.09 128.735 237.92 130.049 238.465C131.37 239.006 132.603 240.245 133.747 242.183L135.142 244.598ZM131.3 243.34C130.544 242.03 129.811 241.176 129.102 240.776C128.388 240.37 127.641 240.392 126.859 240.844C126.096 241.284 125.703 241.899 125.679 242.688C125.652 243.47 125.984 244.48 126.673 245.718L128.499 248.881C129.251 250.185 129.995 251.05 130.729 251.478C131.464 251.906 132.222 251.895 133.004 251.443C133.754 251.01 134.139 250.396 134.158 249.601C134.174 248.799 133.828 247.764 133.121 246.494L131.3 243.34Z" fill="white" fill-opacity="0.81"/>
<path d="M147.713 237.34C148.872 239.347 149.368 241.079 149.202 242.539C149.038 243.988 148.187 245.156 146.649 246.045C145.136 246.918 143.709 247.082 142.368 246.535C141.029 245.979 139.788 244.732 138.644 242.794L137.249 240.379C136.091 238.372 135.597 236.651 135.768 235.215C135.945 233.775 136.806 232.609 138.351 231.717C139.883 230.832 141.306 230.662 142.621 231.207C143.942 231.748 145.174 232.987 146.319 234.925L147.713 237.34ZM143.872 236.082C143.115 234.772 142.382 233.917 141.673 233.518C140.96 233.111 140.212 233.134 139.43 233.586C138.667 234.026 138.274 234.641 138.251 235.429C138.224 236.212 138.555 237.222 139.244 238.46L141.07 241.623C141.823 242.927 142.566 243.792 143.301 244.22C144.035 244.648 144.793 244.637 145.575 244.185C146.325 243.752 146.71 243.138 146.73 242.343C146.746 241.541 146.4 240.506 145.692 239.236L143.872 236.082Z" fill="white" fill-opacity="0.81"/>
<path d="M173.444 230.319L171.117 231.662L164.648 220.458L161.89 223.609L160.756 221.644L165.061 216.487L165.359 216.315L173.444 230.319Z" fill="white" fill-opacity="0.81"/>
<path d="M189.102 221.279L179.688 226.714L178.764 225.113L180.5 217.35C180.742 216.214 180.86 215.315 180.854 214.654C180.851 213.982 180.704 213.394 180.412 212.89C180.029 212.225 179.53 211.797 178.915 211.607C178.307 211.413 177.686 211.499 177.051 211.865C176.295 212.302 175.841 212.87 175.69 213.571C175.539 214.272 175.694 215.021 176.155 215.82L173.819 217.169C173.328 216.319 173.079 215.445 173.073 214.545C173.069 213.636 173.318 212.785 173.818 211.994C174.325 211.199 175.049 210.529 175.992 209.985C177.351 209.2 178.618 208.924 179.795 209.156C180.975 209.378 181.911 210.09 182.605 211.291C183.007 211.988 183.231 212.834 183.276 213.83C183.324 214.817 183.18 216.054 182.843 217.544L181.528 223.172L188.028 219.419L189.102 221.279Z" fill="white" fill-opacity="0.81"/>
<path d="M190.319 209.854L191.742 209.032C192.456 208.611 192.916 208.098 193.123 207.494C193.336 206.885 193.243 206.236 192.844 205.546C192.461 204.881 191.987 204.469 191.425 204.308C190.864 204.137 190.225 204.259 189.507 204.674C188.879 205.036 188.468 205.516 188.275 206.114C188.077 206.705 188.147 207.291 188.482 207.872L186.146 209.222C185.732 208.506 185.545 207.745 185.584 206.939C185.629 206.129 185.898 205.365 186.389 204.646C186.883 203.918 187.553 203.31 188.399 202.821C189.797 202.014 191.096 201.733 192.297 201.977C193.5 202.211 194.462 202.951 195.181 204.197C195.543 204.823 195.682 205.531 195.599 206.32C195.519 207.099 195.243 207.812 194.77 208.459C195.691 208.277 196.512 208.353 197.234 208.686C197.963 209.015 198.552 209.569 199.002 210.349C199.725 211.601 199.868 212.848 199.431 214.089C198.999 215.326 198.082 216.35 196.678 217.16C195.332 217.937 194.023 218.216 192.75 217.996C191.478 217.777 190.499 217.073 189.813 215.884L192.149 214.535C192.504 215.148 192.997 215.528 193.628 215.675C194.266 215.818 194.935 215.687 195.633 215.284C196.358 214.866 196.818 214.345 197.013 213.721C197.208 213.097 197.096 212.421 196.675 211.692C196.251 210.957 195.706 210.518 195.042 210.373C194.377 210.229 193.615 210.404 192.756 210.9L191.381 211.694L190.319 209.854Z" fill="white" fill-opacity="0.81"/>
<path d="M209.863 202.659L211.603 201.655L212.683 203.524L210.942 204.529L212.735 207.634L210.398 208.983L208.605 205.878L202.557 209.37L201.671 207.99L202.264 195.072L204.678 193.678L209.863 202.659ZM203.863 206.124L207.526 204.009L204.162 198.181L204.166 198.588L203.863 206.124Z" fill="white" fill-opacity="0.81"/>
<path d="M228.027 188.083L229.45 187.262C230.164 186.841 230.624 186.328 230.831 185.723C231.044 185.114 230.951 184.465 230.552 183.775C230.169 183.11 229.695 182.698 229.132 182.537C228.572 182.366 227.933 182.488 227.215 182.903C226.587 183.266 226.176 183.746 225.983 184.343C225.785 184.934 225.855 185.52 226.19 186.102L223.854 187.451C223.44 186.735 223.253 185.974 223.292 185.168C223.337 184.358 223.606 183.594 224.097 182.876C224.591 182.147 225.261 181.539 226.107 181.05C227.505 180.244 228.804 179.962 230.005 180.206C231.208 180.44 232.17 181.18 232.889 182.426C233.25 183.052 233.39 183.76 233.307 184.549C233.227 185.328 232.95 186.041 232.478 186.689C233.399 186.507 234.22 186.582 234.942 186.915C235.671 187.244 236.26 187.798 236.71 188.578C237.433 189.83 237.576 191.077 237.138 192.318C236.707 193.555 235.79 194.579 234.386 195.389C233.04 196.167 231.731 196.445 230.458 196.226C229.186 196.006 228.207 195.302 227.521 194.113L229.857 192.764C230.212 193.378 230.704 193.758 231.336 193.904C231.974 194.047 232.642 193.917 233.341 193.513C234.066 193.095 234.526 192.574 234.721 191.95C234.916 191.326 234.804 190.65 234.383 189.921C233.959 189.187 233.414 188.747 232.75 188.602C232.085 188.458 231.323 188.634 230.464 189.13L229.089 189.923L228.027 188.083Z" fill="white" fill-opacity="0.81"/>
<path d="M251.953 184.992L242.539 190.427L241.615 188.826L243.351 181.063C243.592 179.927 243.71 179.028 243.705 178.367C243.702 177.696 243.554 177.107 243.263 176.603C242.879 175.938 242.38 175.511 241.766 175.32C241.158 175.126 240.537 175.212 239.902 175.578C239.146 176.015 238.692 176.584 238.541 177.284C238.39 177.985 238.545 178.735 239.006 179.533L236.669 180.882C236.179 180.033 235.93 179.158 235.924 178.258C235.92 177.349 236.168 176.498 236.669 175.707C237.175 174.912 237.9 174.242 238.842 173.698C240.201 172.913 241.469 172.637 242.646 172.869C243.826 173.091 244.762 173.803 245.456 175.004C245.858 175.701 246.081 176.547 246.127 177.544C246.175 178.53 246.03 179.768 245.694 181.257L244.379 186.885L250.879 183.132L251.953 184.992Z" fill="white" fill-opacity="0.81"/>
<path d="M260.142 173.631L261.883 172.626L262.962 174.495L261.221 175.5L263.014 178.605L260.678 179.954L258.885 176.849L252.836 180.341L251.95 178.961L252.543 166.043L254.957 164.65L260.142 173.631ZM254.142 177.095L257.806 174.98L254.441 169.152L254.445 169.559L254.142 177.095Z" fill="white" fill-opacity="0.81"/>
<path d="M274.009 172.258L271.682 173.601L265.213 162.396L262.455 165.548L261.32 163.583L265.626 158.426L265.924 158.254L274.009 172.258Z" fill="white" fill-opacity="0.81"/>
<path d="M299.145 157.745L296.818 159.089L290.349 147.884L287.591 151.035L286.457 149.07L290.762 143.914L291.06 143.742L299.145 157.745Z" fill="white" fill-opacity="0.81"/>
<path d="M314.803 148.705L305.389 154.14L304.465 152.539L306.202 144.776C306.443 143.64 306.561 142.741 306.555 142.08C306.552 141.409 306.405 140.821 306.114 140.316C305.73 139.651 305.231 139.224 304.617 139.033C304.009 138.839 303.387 138.925 302.753 139.291C301.996 139.728 301.542 140.297 301.391 140.997C301.24 141.698 301.395 142.448 301.857 143.246L299.52 144.596C299.029 143.746 298.781 142.871 298.774 141.972C298.771 141.062 299.019 140.212 299.519 139.42C300.026 138.625 300.75 137.955 301.693 137.411C303.052 136.627 304.32 136.35 305.497 136.582C306.676 136.805 307.613 137.516 308.306 138.718C308.708 139.414 308.932 140.26 308.977 141.257C309.025 142.243 308.881 143.481 308.544 144.97L307.229 150.598L313.73 146.845L314.803 148.705Z" fill="white" fill-opacity="0.81"/>
<path d="M316.02 137.28L317.443 136.459C318.157 136.038 318.618 135.525 318.824 134.92C319.037 134.311 318.944 133.662 318.546 132.972C318.162 132.307 317.689 131.895 317.126 131.734C316.566 131.563 315.927 131.685 315.209 132.1C314.58 132.463 314.17 132.943 313.976 133.54C313.779 134.131 313.848 134.717 314.184 135.299L311.847 136.648C311.434 135.932 311.247 135.171 311.285 134.365C311.331 133.555 311.599 132.791 312.09 132.073C312.584 131.344 313.255 130.736 314.101 130.247C315.498 129.441 316.797 129.159 317.998 129.403C319.201 129.637 320.163 130.377 320.882 131.623C321.244 132.249 321.383 132.957 321.3 133.746C321.22 134.525 320.944 135.238 320.472 135.886C321.392 135.704 322.213 135.779 322.935 136.112C323.664 136.441 324.253 136.995 324.703 137.775C325.426 139.027 325.569 140.274 325.132 141.515C324.701 142.752 323.783 143.776 322.379 144.586C321.033 145.364 319.724 145.642 318.452 145.423C317.179 145.203 316.2 144.499 315.514 143.31L317.851 141.961C318.205 142.575 318.698 142.955 319.329 143.101C319.967 143.244 320.636 143.114 321.335 142.71C322.059 142.292 322.519 141.771 322.714 141.147C322.91 140.523 322.797 139.847 322.376 139.118C321.952 138.384 321.408 137.944 320.743 137.799C320.078 137.655 319.316 137.831 318.457 138.327L317.082 139.12L316.02 137.28Z" fill="white" fill-opacity="0.81"/>
<path d="M335.564 130.086L337.305 129.081L338.384 130.95L336.643 131.955L338.436 135.06L336.1 136.409L334.307 133.304L328.258 136.796L327.372 135.416L327.965 122.498L330.379 121.105L335.564 130.086ZM329.564 133.55L333.228 131.435L329.863 125.607L329.867 126.014L329.564 133.55Z" fill="white" fill-opacity="0.81"/>
<path d="M134.758 319.626L133.061 320.606L128.321 312.396L130.018 311.417L134.758 319.626Z" fill="white" fill-opacity="0.81"/>
<path d="M138.181 314.996L136.945 310.229L138.653 309.243L140.111 316.535L138.55 317.437L132.963 312.528L134.671 311.542L138.181 314.996Z" fill="white" fill-opacity="0.81"/>
<path d="M147.166 312.462C147.006 312.359 146.846 312.208 146.686 312.01C146.544 312.678 146.157 313.195 145.523 313.561C144.924 313.907 144.326 314.021 143.73 313.904C143.138 313.785 142.691 313.462 142.387 312.936C142.014 312.289 141.967 311.655 142.246 311.033C142.529 310.408 143.124 309.832 144.03 309.303L144.783 308.869L144.581 308.519C144.418 308.237 144.214 308.054 143.97 307.97C143.729 307.884 143.452 307.931 143.139 308.112C142.863 308.27 142.685 308.461 142.602 308.684C142.523 308.905 142.55 309.13 142.683 309.36L141.048 310.303C140.844 309.95 140.765 309.56 140.81 309.133C140.855 308.706 141.028 308.292 141.33 307.893C141.63 307.489 142.029 307.143 142.527 306.856C143.281 306.421 143.988 306.265 144.649 306.39C145.311 306.509 145.839 306.911 146.234 307.595L147.761 310.239C148.099 310.816 148.433 311.207 148.763 311.412L148.818 311.508L147.166 312.462ZM145.16 312.109C145.401 311.97 145.593 311.789 145.736 311.566C145.877 311.339 145.944 311.107 145.938 310.87L145.333 309.822L144.722 310.174C143.904 310.647 143.631 311.18 143.904 311.775L143.953 311.874C144.07 312.077 144.239 312.203 144.458 312.251C144.677 312.3 144.911 312.253 145.16 312.109Z" fill="white" fill-opacity="0.81"/>
<path d="M148.624 303.486L149.082 304.162C149.204 303.364 149.633 302.753 150.369 302.328C151.017 301.954 151.61 301.865 152.145 302.062C152.681 302.259 153.171 302.733 153.615 303.484L155.89 307.425L154.256 308.369L152.003 304.467C151.803 304.121 151.584 303.915 151.344 303.848C151.102 303.777 150.806 303.843 150.455 304.045C149.995 304.311 149.763 304.706 149.758 305.229L152.242 309.531L150.607 310.475L147.085 304.375L148.624 303.486Z" fill="white" fill-opacity="0.81"/>
<path d="M163.617 300.25L161.919 292.999L163.808 291.908L165.68 301.773L163.91 302.795L156.313 296.235L158.197 295.148L163.617 300.25Z" fill="white" fill-opacity="0.81"/>
<path d="M173.318 297.363C173.158 297.26 172.998 297.109 172.838 296.911C172.696 297.579 172.309 298.096 171.675 298.462C171.075 298.808 170.478 298.923 169.882 298.805C169.29 298.686 168.843 298.363 168.539 297.837C168.165 297.191 168.118 296.556 168.398 295.934C168.681 295.309 169.276 294.733 170.182 294.204L170.935 293.77L170.733 293.42C170.57 293.139 170.366 292.955 170.121 292.871C169.881 292.785 169.604 292.832 169.291 293.013C169.015 293.172 168.836 293.363 168.754 293.586C168.675 293.806 168.702 294.031 168.835 294.261L167.2 295.205C166.996 294.851 166.916 294.461 166.962 294.034C167.007 293.607 167.18 293.194 167.482 292.794C167.782 292.39 168.181 292.045 168.679 291.757C169.433 291.322 170.14 291.166 170.801 291.291C171.463 291.41 171.991 291.812 172.386 292.496L173.913 295.14C174.251 295.717 174.585 296.108 174.914 296.314L174.97 296.409L173.318 297.363ZM171.312 297.01C171.553 296.871 171.745 296.69 171.888 296.467C172.029 296.24 172.096 296.009 172.09 295.772L171.485 294.723L170.874 295.076C170.055 295.548 169.783 296.081 170.055 296.676L170.105 296.775C170.222 296.978 170.39 297.104 170.61 297.153C170.829 297.201 171.063 297.154 171.312 297.01Z" fill="white" fill-opacity="0.81"/>
<path d="M179.134 291.757C179.019 291.558 178.829 291.46 178.565 291.462C178.301 291.459 177.925 291.538 177.435 291.701C175.804 292.237 174.72 292.04 174.184 291.112C173.872 290.571 173.836 289.99 174.076 289.37C174.318 288.744 174.803 288.221 175.531 287.801C176.307 287.353 177.033 287.177 177.707 287.274C178.385 287.368 178.893 287.707 179.229 288.29L177.594 289.233C177.46 289 177.274 288.852 177.036 288.789C176.796 288.722 176.516 288.781 176.196 288.966C175.92 289.125 175.743 289.31 175.664 289.521C175.585 289.732 175.6 289.934 175.711 290.125C175.815 290.306 175.985 290.403 176.219 290.418C176.456 290.427 176.802 290.355 177.257 290.203C177.709 290.046 178.105 289.939 178.442 289.879C179.488 289.696 180.236 289.994 180.685 290.772C181.006 291.328 181.027 291.917 180.748 292.54C180.466 293.158 179.947 293.686 179.189 294.124C178.676 294.42 178.167 294.593 177.664 294.644C177.161 294.688 176.706 294.618 176.297 294.433C175.887 294.244 175.575 293.965 175.362 293.597L176.912 292.702C177.094 292.983 177.33 293.142 177.619 293.181C177.907 293.22 178.22 293.142 178.555 292.949C178.868 292.768 179.07 292.574 179.161 292.366C179.254 292.152 179.245 291.949 179.134 291.757Z" fill="white" fill-opacity="0.81"/>
<path d="M184.52 287.821L183.46 283.373L185.214 282.361L186.822 290.829L186.872 291.229C186.966 292.237 186.593 292.984 185.752 293.469C185.514 293.607 185.252 293.71 184.966 293.78L184.253 292.546L184.505 292.408C184.815 292.229 185.018 292.049 185.114 291.868C185.214 291.685 185.245 291.459 185.206 291.191L185.109 290.578L179.433 285.699L181.192 284.683L184.52 287.821Z" fill="white" fill-opacity="0.81"/>
<path d="M191.917 286.625L190.276 287.572L185.276 278.912L186.917 277.965L191.917 286.625Z" fill="white" fill-opacity="0.81"/>
<path d="M195.805 284.38L194.164 285.327L190.642 279.227L192.283 278.28L195.805 284.38ZM189.635 277.704C189.494 277.459 189.458 277.212 189.529 276.96C189.604 276.706 189.783 276.498 190.066 276.335C190.345 276.173 190.613 276.124 190.87 276.186C191.127 276.248 191.326 276.401 191.467 276.646C191.61 276.894 191.643 277.146 191.564 277.402C191.489 277.655 191.314 277.861 191.039 278.02C190.764 278.179 190.496 278.229 190.235 278.169C189.978 278.107 189.778 277.952 189.635 277.704Z" fill="white" fill-opacity="0.81"/>
<path d="M200.849 281.618C199.952 282.136 199.062 282.284 198.18 282.062C197.301 281.838 196.598 281.269 196.07 280.355L195.979 280.198C195.626 279.585 195.429 278.969 195.388 278.351C195.346 277.729 195.467 277.163 195.751 276.653C196.036 276.138 196.458 275.719 197.016 275.397C197.853 274.913 198.663 274.796 199.446 275.046C200.232 275.294 200.904 275.901 201.462 276.867L201.846 277.532L197.949 279.782C198.232 280.15 198.575 280.378 198.978 280.466C199.384 280.552 199.791 280.478 200.198 280.242C200.828 279.879 201.189 279.367 201.281 278.708L202.602 279.141C202.556 279.628 202.381 280.09 202.075 280.527C201.767 280.961 201.359 281.324 200.849 281.618ZM197.772 276.719C197.448 276.906 197.247 277.168 197.169 277.503C197.095 277.837 197.147 278.223 197.325 278.661L199.599 277.349L199.524 277.219C199.308 276.862 199.049 276.641 198.748 276.554C198.444 276.464 198.119 276.519 197.772 276.719Z" fill="white" fill-opacity="0.81"/>
<path d="M206.108 275.778L204.872 271.011L206.58 270.025L208.038 277.318L206.477 278.219L200.89 273.31L202.598 272.324L206.108 275.778Z" fill="white" fill-opacity="0.81"/>
<path d="M126.93 296.527C127.586 297.662 127.851 298.666 127.727 299.54C127.603 300.413 127.087 301.113 126.178 301.637C125.28 302.155 124.424 302.257 123.608 301.941C122.792 301.625 122.061 300.92 121.413 299.825L120.541 298.314C119.879 297.167 119.614 296.16 119.747 295.292C119.883 294.421 120.399 293.727 121.297 293.209C122.194 292.691 123.051 292.59 123.867 292.906C124.68 293.218 125.411 293.921 126.058 295.016L126.93 296.527ZM124.339 295.813C123.946 295.133 123.566 294.693 123.2 294.493C122.835 294.288 122.454 294.3 122.059 294.528C121.674 294.75 121.475 295.063 121.462 295.467C121.45 295.865 121.62 296.381 121.971 297.015L123.123 299.011C123.509 299.68 123.887 300.126 124.257 300.348C124.629 300.565 125.016 300.556 125.419 300.324C125.819 300.093 126.018 299.77 126.015 299.356C126.012 298.942 125.829 298.411 125.465 297.764L124.339 295.813Z" fill="white" fill-opacity="0.81"/>
<path d="M134.78 296.52L133.146 297.464L129.519 291.183L127.916 292.913L127.151 291.588L129.859 288.401L130.034 288.3L134.78 296.52Z" fill="white" fill-opacity="0.81"/>
<path d="M139.262 294.873L138.046 295.575L135.931 284.91L137.147 284.208L139.262 294.873Z" fill="white" fill-opacity="0.81"/>
<path d="M149.061 288.275L143.416 291.534L142.772 290.418L143.802 286.05C143.937 285.44 144.006 284.937 144.008 284.539C144.014 284.14 143.94 283.807 143.786 283.54C143.575 283.176 143.318 282.943 143.014 282.843C142.708 282.739 142.383 282.787 142.04 282.985C141.67 283.198 141.452 283.495 141.384 283.874C141.319 284.248 141.405 284.642 141.644 285.055L140.003 286.002C139.715 285.502 139.57 284.977 139.569 284.426C139.571 283.874 139.724 283.354 140.027 282.869C140.328 282.379 140.755 281.975 141.31 281.655C142.158 281.165 142.933 280.988 143.635 281.124C144.341 281.258 144.908 281.695 145.335 282.435C145.569 282.841 145.703 283.316 145.734 283.859C145.766 284.402 145.688 285.101 145.498 285.957L144.762 289.006L148.303 286.962L149.061 288.275Z" fill="white" fill-opacity="0.81"/>
<path d="M153.931 281.344L154.865 280.805L155.623 282.119L154.69 282.658L155.715 284.434L154.08 285.377L153.055 283.601L149.678 285.551L149.012 284.567L149.324 277.178L150.976 276.224L153.931 281.344ZM150.475 283.339L152.297 282.288L150.623 279.39L150.623 279.638L150.475 283.339Z" fill="white" fill-opacity="0.81"/>
</g>
</g>
<defs>
<filter id="filter0_d" x="0" y="0" width="425.334" height="381.777" filterUnits="userSpaceOnUse" color-interpolation-filters="sRGB">
<feFlood flood-opacity="0" result="BackgroundImageFix"/>
<feColorMatrix in="SourceAlpha" type="matrix" values="0 0 0 0 0 0 0 0 0 0 0 0 0 0 0 0 0 0 127 0"/>
<feOffset dy="4"/>
<feGaussianBlur stdDeviation="15"/>
<feColorMatrix type="matrix" values="0 0 0 0 0 0 0 0 0 0 0 0 0 0 0 0 0 0 0.11 0"/>
<feBlend mode="normal" in2="BackgroundImageFix" result="effect1_dropShadow"/>
<feBlend mode="normal" in="SourceGraphic" in2="effect1_dropShadow" result="shape"/>
</filter>
<linearGradient id="paint0_linear" x1="30" y1="181.5" x2="365.015" y2="243.287" gradientUnits="userSpaceOnUse">
<stop stop-color="#747AEE"/>
<stop offset="1" stop-color="#000ACC"/>
</linearGradient>
<clipPath id="clip0">
<rect x="30" y="181.5" width="311" height="192" transform="rotate(-30 30 181.5)" fill="white"/>
</clipPath>
</defs>
</svg>
