<svg width="10" height="8" viewBox="0 0 10 8" fill="none" xmlns="http://www.w3.org/2000/svg"><path d="M9.70688 0.292899C9.31605 -0.0976329 8.68239 -0.0976329 8.29156 0.292899L2.28702 6.29286C1.89619 6.68339 1.89619 7.31657 2.28702 7.7071C2.67785 8.09763 3.31151 8.09763 3.70234 7.7071L9.70688 1.70714C10.0977 1.31661 10.0977 0.68343 9.70688 0.292899Z" fill="#fff"></path><path d="M0.293122 4.29297C0.683952 3.90244 1.31761 3.90244 1.70844 4.29297L3.70985 6.29286C4.10068 6.68339 4.10068 7.31657 3.70985 7.7071C3.31902 8.09763 2.68536 8.09763 2.29453 7.7071L0.293122 5.70721C-0.0977076 5.31668 -0.0977072 4.68351 0.293122 4.29297Z" fill="#fff"></path></svg>