<svg width="18" height="18" viewBox="0 0 18 18" fill="none" xmlns="http://www.w3.org/2000/svg">
<path fill-rule="evenodd" clip-rule="evenodd" d="M0.414984 0.414007C0.701368 0.127623 1.16569 0.127623 1.45207 0.414007L9.00019 7.96213L16.5483 0.414007C16.8347 0.127623 17.299 0.127623 17.5854 0.414007C17.8718 0.700392 17.8718 1.16471 17.5854 1.4511L10.0373 8.99922L17.5854 16.5473C17.8718 16.8337 17.8718 17.298 17.5854 17.5844C17.299 17.8708 16.8347 17.8708 16.5483 17.5844L9.00019 10.0363L1.45207 17.5844C1.16569 17.8708 0.701368 17.8708 0.414984 17.5844C0.128599 17.298 0.128599 16.8337 0.414984 16.5473L7.9631 8.99922L0.414984 1.4511C0.128599 1.16471 0.128599 0.700392 0.414984 0.414007Z" fill="#7E95AD"/>
</svg>
