<svg width="40" height="40" viewBox="0 0 40 40" fill="none" xmlns="http://www.w3.org/2000/svg">
<path d="M23.2525 15.7381V11.8794H32.2203V6L7.80084 6V11.8794H16.7696V15.735C9.48061 16.0644 4 17.4848 4 19.1864C4 20.8881 9.48324 22.3085 16.7696 22.64V35H23.2546V22.6389C30.5305 22.3085 36 20.8891 36 19.189C36 17.489 30.5305 16.0696 23.2546 15.7391L23.2525 15.7381ZM23.2546 21.592V21.5889C23.0717 21.6003 22.1316 21.6559 20.0385 21.6559C18.365 21.6559 17.1877 21.6092 16.7728 21.5879V21.5931C10.3331 21.3124 5.52635 20.209 5.52635 18.8887C5.52635 17.5684 10.3337 16.4665 16.7728 16.1853V20.4938C17.1946 20.5223 18.4009 20.5923 20.0659 20.5923C22.0657 20.5923 23.0711 20.5104 23.2557 20.4938V16.1853C29.6827 16.467 34.4784 17.5715 34.4784 18.8871C34.4784 20.2027 29.6806 21.3077 23.2557 21.5894" fill="#53AE94"/>
</svg>
