<svg width="40" height="40" viewBox="0 0 40 40" fill="none" xmlns="http://www.w3.org/2000/svg">
<path d="M30.7584 14.1721C30.378 10.8292 27.4678 9.75707 23.8127 9.50104L23.7316 4.85627L20.9044 4.90591L20.9835 9.42826C20.2402 9.44133 19.4807 9.46928 18.7262 9.49752L18.6472 4.94521L15.8214 4.99445L15.9014 9.6379C15.2896 9.66109 14.6886 9.68297 14.1025 9.69358L14.1019 9.67918L10.2024 9.7459L10.2559 12.7655C10.2559 12.7655 12.343 12.6892 12.3089 12.7283C13.4541 12.7086 13.8384 13.367 13.9569 13.9388L14.0495 19.2301C14.1285 19.2292 14.2317 19.2307 14.3487 19.2446C14.2545 19.2464 14.1537 19.2475 14.05 19.2502L14.1787 26.6629C14.1347 27.0242 13.9329 27.6025 13.1329 27.6179C13.1696 27.6493 11.0777 27.6532 11.0777 27.6532L10.5748 31.0395L14.2541 30.9751C14.9388 30.964 15.6127 30.9638 16.2741 30.9565L16.3573 35.6541L19.1815 35.6053L19.1003 30.9573C19.876 30.9598 20.6266 30.9528 21.3592 30.9394L21.4387 35.566L24.2659 35.5163L24.185 30.827C28.9334 30.4713 32.2392 29.2158 32.5744 24.745C32.8452 21.1451 31.1265 19.5709 28.417 18.9701C30.0417 18.1068 31.0408 16.6182 30.7584 14.1721ZM26.9782 24.2859C27.0411 27.7964 21.0231 27.502 19.107 27.5373L18.9991 21.3132C20.9157 21.2802 26.9145 20.6242 26.9782 24.2859ZM25.51 15.5274C25.5649 18.7214 20.5453 18.4362 18.9493 18.4642L18.8509 12.8192C20.4469 12.7912 25.4515 12.1961 25.51 15.5274Z" fill="#F7931A"/>
</svg>
