<svg width="28" height="28" viewBox="0 0 28 28" fill="none" xmlns="http://www.w3.org/2000/svg">
<rect x="4.61787" y="10.3449" width="18.7636" height="16.8545" rx="4.2" stroke="#27AE60" stroke-width="1.6"/>
<path d="M8.43623 6.36364C8.43623 3.29093 10.9272 0.8 13.9999 0.8C17.0726 0.8 19.5635 3.29093 19.5635 6.36363V10.0182H8.43623V6.36364Z" stroke="#27AE60" stroke-width="1.6"/>
<path d="M12.3248 22.2656L12.3181 23.0722H13.1248H14.8748H15.6814L15.6748 22.2656L15.6446 18.6216C15.8979 18.3376 16.0725 17.9659 16.0725 17.5303C16.0725 16.3659 14.942 15.7449 13.9998 15.7449C13.0576 15.7449 11.9271 16.3659 11.9271 17.5303C11.9271 17.9659 12.1017 18.3376 12.355 18.6216L12.3248 22.2656Z" stroke="#27AE60" stroke-width="1.6"/>
</svg>
