<svg width="150" height="34" viewBox="0 0 150 34" fill="none" xmlns="http://www.w3.org/2000/svg">
<path fill-rule="evenodd" clip-rule="evenodd" d="M16.4943 7.76035C19.0731 7.76035 21.4073 8.79309 23.099 10.4622L28.1523 5.46707C26.6227 3.95201 24.8054 2.75056 22.8048 1.93168C20.8042 1.11281 18.6597 0.692645 16.4943 0.695325C7.38487 0.695325 0 7.99515 0 16.9997C0 22.5732 2.83113 27.4913 7.14734 30.4323V16.9997C7.14734 11.897 11.3322 7.76035 16.4943 7.76035ZM16.4943 26.2384C15.2281 26.2384 14.0217 25.9883 12.9203 25.5378V32.9152C14.0713 33.1672 15.2667 33.3034 16.4943 33.3034C20.9766 33.3034 25.0392 31.5338 28.0119 28.6653L22.958 23.6702C21.2206 25.3205 18.9038 26.241 16.4943 26.2384Z" fill="#4A47D2"/>
<path fill-rule="evenodd" clip-rule="evenodd" d="M16.4943 20.5325C17.4084 20.5325 18.2401 20.1902 18.8722 19.6321L16.3475 17.1358L19.0164 14.4983C18.6003 14.0886 18.0884 13.7866 17.5261 13.6191C16.9638 13.4515 16.3683 13.4235 15.7925 13.5376C15.2166 13.6517 14.6781 13.9044 14.2245 14.2732C13.771 14.6421 13.4164 15.1157 13.1921 15.6523C12.9679 16.1889 12.8809 16.7718 12.9388 17.3495C12.9968 17.9272 13.1979 18.4819 13.5244 18.9645C13.8509 19.4471 14.2927 19.8427 14.8107 20.1163C15.3287 20.3899 15.907 20.5331 16.4943 20.5331" fill="#4A47D2"/>
<path fill-rule="evenodd" clip-rule="evenodd" d="M16.4943 20.5325C17.4084 20.5325 18.2401 20.1902 18.8722 19.6321L16.3475 17.1358L19.0164 14.4983C18.6003 14.0886 18.0884 13.7866 17.5261 13.6191C16.9638 13.4515 16.3683 13.4235 15.7925 13.5376C15.2166 13.6517 14.6781 13.9044 14.2245 14.2732C13.771 14.6421 13.4164 15.1157 13.1921 15.6523C12.9679 16.1889 12.8809 16.7718 12.9388 17.3495C12.9968 17.9272 13.1979 18.4819 13.5244 18.9645C13.8509 19.4471 14.2927 19.8427 14.8107 20.1163C15.3287 20.3899 15.907 20.5331 16.4943 20.5331" fill="#4A47D2"/>
<path fill-rule="evenodd" clip-rule="evenodd" d="M16.4943 20.5325C17.4084 20.5325 18.2401 20.1902 18.8722 19.6321L16.3475 17.1358L19.0164 14.4983C18.6003 14.0886 18.0884 13.7866 17.5261 13.6191C16.9638 13.4515 16.3683 13.4235 15.7925 13.5376C15.2166 13.6517 14.6781 13.9044 14.2245 14.2732C13.771 14.6421 13.4164 15.1157 13.1921 15.6523C12.9679 16.1889 12.8809 16.7718 12.9388 17.3495C12.9968 17.9272 13.1979 18.4819 13.5244 18.9645C13.8509 19.4471 14.2927 19.8427 14.8107 20.1163C15.3287 20.3899 15.907 20.5331 16.4943 20.5331" fill="#4A47D2"/>
<path fill-rule="evenodd" clip-rule="evenodd" d="M16.4943 20.5325C17.4084 20.5325 18.2401 20.1902 18.8722 19.6321L16.3475 17.1358L19.0164 14.4983C18.6003 14.0886 18.0884 13.7866 17.5261 13.6191C16.9638 13.4515 16.3683 13.4235 15.7925 13.5376C15.2166 13.6517 14.6781 13.9044 14.2245 14.2732C13.771 14.6421 13.4164 15.1157 13.1921 15.6523C12.9679 16.1889 12.8809 16.7718 12.9388 17.3495C12.9968 17.9272 13.1979 18.4819 13.5244 18.9645C13.8509 19.4471 14.2927 19.8427 14.8107 20.1163C15.3287 20.3899 15.907 20.5331 16.4943 20.5331" fill="#4A47D2"/>
<path fill-rule="evenodd" clip-rule="evenodd" d="M18.8724 19.6305C19.2485 19.3003 19.5495 18.895 19.7557 18.4413C19.9619 17.9877 20.0684 17.496 20.0684 16.9987C20.069 16.5336 19.9764 16.0729 19.7958 15.6434C19.6153 15.2138 19.3504 14.8239 19.0166 14.4961L16.3477 17.1343L18.8724 19.6305Z" fill="#4A47D2"/>
<path fill-rule="evenodd" clip-rule="evenodd" d="M18.8724 19.6325C19.2485 19.3022 19.5495 18.8969 19.7557 18.4433C19.9619 17.9896 20.0684 17.498 20.0684 17.0007C20.069 16.5355 19.9764 16.0749 19.7959 15.6453C19.6153 15.2158 19.3504 14.8258 19.0166 14.498L16.3477 17.1362L18.8724 19.6325Z" fill="#4A47D2"/>
<path d="M39.4482 15.4662C38.7355 13.687 37.0899 12.686 35.0199 12.686H35.0205C32.347 12.686 30.25 14.6362 30.25 17.3905C30.25 20.1448 32.347 22.0684 35.0205 22.0684C37.0905 22.0684 38.7362 21.0803 39.4488 19.3141H37.9548C37.4334 20.4083 36.4189 21.0273 35.0205 21.0273C33.0186 21.0273 31.5245 19.6307 31.5245 17.3905C31.5245 15.1367 33.0186 13.7401 35.0205 13.7401C36.4189 13.7401 37.4334 14.3591 37.9548 15.4662H39.4482Z" fill="#4A47D2"/>
<path d="M41.2986 21.9894H42.5455L42.5462 21.99V18.0631C42.5462 16.3895 43.4515 15.8754 44.6438 15.8754H44.9732V14.6368C43.7802 14.6368 42.9712 15.1373 42.5462 15.9414V14.7688H41.2986V21.9894Z" fill="#4A47D2"/>
<path d="M52.8834 14.7676H51.5941L49.2641 20.6193L46.9058 14.7682H45.5208L48.5507 21.911L47.0701 25.3898H48.3588L52.8834 14.7676Z" fill="#4A47D2"/>
<path d="M62.6986 15.7563H63.672V20.0127C63.672 21.4623 64.4264 21.9894 65.7568 21.9894H66.8804V20.9748H65.9622C65.1937 20.9748 64.9195 20.7242 64.9195 20.0127V15.7563H66.8804V14.7676H64.9195V12.9495H63.672V14.7676H62.6986V15.7563Z" fill="#4A47D2"/>
<path d="M85.1002 21.9894H86.3471L86.3477 21.99V18.0631C86.3477 16.3895 87.2524 15.8754 88.4454 15.8754H88.7747V14.6368C87.5811 14.6368 86.7728 15.1373 86.3477 15.9414V14.7688H85.1002V21.9894Z" fill="#4A47D2"/>
<path d="M105.651 17.0868C105.267 15.5717 104.047 14.6491 102.182 14.6491C100.043 14.6491 98.5213 16.0988 98.5213 18.3655C98.5213 20.6582 100.043 22.1079 102.182 22.1079C104.047 22.1079 105.267 21.1063 105.651 19.6702H104.308C104.033 20.5792 103.293 21.0933 102.182 21.0933C100.811 21.0933 99.7964 20.1577 99.7964 18.3655C99.7964 16.5993 100.811 15.6637 102.182 15.6637C103.292 15.6637 104.047 16.2173 104.307 17.0868H105.651Z" fill="#4A47D2"/>
<path d="M115.398 19.8677C115.48 21.1859 116.714 22.1079 118.469 22.1079C120.128 22.1079 121.211 21.2118 121.211 20.0263C121.156 17.4429 116.796 18.3785 116.796 16.6653C116.796 16.0852 117.345 15.6637 118.263 15.6637C119.264 15.6637 119.84 16.1914 119.895 16.9159H121.142C121.06 15.5057 119.963 14.6491 118.305 14.6491C116.632 14.6491 115.549 15.5582 115.549 16.6653C115.549 19.3536 119.991 18.418 119.991 20.0256C119.991 20.6193 119.442 21.0933 118.455 21.0933C117.399 21.0933 116.755 20.5663 116.687 19.8677H115.398Z" fill="#4A47D2"/>
<path fill-rule="evenodd" clip-rule="evenodd" d="M58.1888 14.6491C60.2042 14.6491 61.7535 16.0988 61.7535 18.352C61.7535 20.5922 60.2042 22.1085 58.1888 22.1085C56.8173 22.1085 55.8439 21.3963 55.3778 20.6582V25.4157H54.1303V14.7676H55.3778V16.0988C55.8305 15.3341 56.8173 14.6491 58.1888 14.6491ZM55.3778 18.3655C55.3778 16.6919 56.5708 15.6902 57.9281 15.6902C59.313 15.6902 60.4784 16.6524 60.4784 18.3526C60.4784 20.0522 59.313 21.0538 57.9281 21.0538C56.5708 21.0538 55.3778 20.0651 55.3778 18.3655Z" fill="#4A47D2"/>
<path fill-rule="evenodd" clip-rule="evenodd" d="M71.6644 22.1079C69.5392 22.1079 67.9218 20.6582 67.9218 18.3655C67.9218 16.0852 69.5944 14.6491 71.7196 14.6491C73.8583 14.6491 75.5174 16.0852 75.5174 18.3655C75.5174 20.6582 73.8031 22.1079 71.665 22.1079H71.6644ZM74.2423 18.3655C74.2423 20.1972 72.9671 21.0538 71.6644 21.0538C70.3623 21.0538 69.1969 20.1972 69.1969 18.3655C69.1969 16.5468 70.3899 15.6902 71.7061 15.6902C72.9947 15.6902 74.2423 16.5468 74.2423 18.3655Z" fill="#4A47D2"/>
<path fill-rule="evenodd" clip-rule="evenodd" d="M80.2468 18.1545H78.4099V21.9894H77.1624V12.8039H80.2468C82.4954 12.8039 83.5509 13.99 83.5509 15.4927C83.5509 16.8893 82.6186 18.1545 80.2468 18.1545ZM82.2758 15.4927C82.2758 16.5209 81.6722 17.1664 80.2468 17.1664H78.4099V13.7925H80.2468C81.6722 13.7925 82.2758 14.4251 82.2758 15.4927Z" fill="#4A47D2"/>
<path fill-rule="evenodd" clip-rule="evenodd" d="M93.4901 22.1079C91.3648 22.1079 89.7475 20.6582 89.7475 18.3655C89.7475 16.0852 91.42 14.6491 93.5453 14.6491C95.684 14.6491 97.3431 16.0852 97.3431 18.3655C97.3431 20.6582 95.6288 22.1079 93.4907 22.1079H93.4901ZM96.0673 18.3655C96.0673 20.1972 94.7928 21.0538 93.4901 21.0538C92.1879 21.0538 91.0226 20.1972 91.0226 18.3655C91.0226 16.5468 92.2149 15.6902 93.5311 15.6902C94.8204 15.6902 96.0673 16.5468 96.0673 18.3655Z" fill="#4A47D2"/>
<path fill-rule="evenodd" clip-rule="evenodd" d="M110.559 22.1079C108.42 22.1079 106.843 20.6582 106.843 18.3655C106.843 16.0858 108.365 14.6491 110.559 14.6491C112.738 14.6491 114.164 16.1253 114.164 18.102C114.164 18.3655 114.15 18.576 114.123 18.8265H108.118C108.215 20.2892 109.284 21.0933 110.559 21.0933C111.682 21.0933 112.396 20.5397 112.67 19.7621H114.014C113.63 21.0803 112.423 22.1079 110.559 22.1079ZM112.876 17.8515H108.132C108.269 16.4413 109.284 15.6637 110.503 15.6637C111.793 15.6637 112.889 16.4413 112.876 17.8515Z" fill="#4A47D2"/>
<path d="M125.625 22.1079C123.87 22.1079 122.636 21.1859 122.554 19.8677H123.842C123.911 20.5663 124.555 21.0933 125.611 21.0933C126.598 21.0933 127.147 20.6193 127.147 20.0256C127.147 18.418 122.705 19.3536 122.705 16.6653C122.705 15.5582 123.788 14.6491 125.46 14.6491C127.119 14.6491 128.216 15.5057 128.298 16.9159H127.051C126.996 16.1914 126.42 15.6637 125.419 15.6637C124.5 15.6637 123.952 16.0852 123.952 16.6653C123.952 18.3785 128.312 17.4429 128.367 20.0263C128.367 21.2118 127.283 22.1079 125.625 22.1079Z" fill="#4A47D2"/>
<path fill-rule="evenodd" clip-rule="evenodd" d="M130.296 22.1359H131.544V14.9142H130.296V22.1359ZM130.091 12.9245C130.091 12.4629 130.461 12.1074 130.941 12.1074C131.394 12.1074 131.763 12.4629 131.763 12.9245C131.763 13.3855 131.394 13.7416 130.941 13.7416C130.829 13.7433 130.718 13.7233 130.614 13.6828C130.51 13.6423 130.415 13.5822 130.336 13.506C130.257 13.4298 130.194 13.3391 130.152 13.2392C130.11 13.1393 130.089 13.0323 130.091 12.9245ZM139.167 18.0505C139.167 16.5749 138.331 15.8238 137.069 15.8238C135.794 15.8238 134.917 16.5879 134.917 18.1431V22.1359H133.669V14.9154H134.917V15.9429C135.41 15.1919 136.316 14.7833 137.33 14.7833C139.071 14.7833 140.401 15.8109 140.401 17.8802V22.1366H139.167V18.0505ZM145.789 15.8368C144.417 15.8368 143.253 16.7989 143.253 18.4991C143.253 20.1987 144.417 21.2004 145.789 21.2004C147.16 21.2004 148.339 20.2117 148.339 18.5121C148.339 16.8384 147.16 15.8368 145.789 15.8368ZM145.542 14.7957C146.913 14.7957 147.9 15.4548 148.339 16.2324V14.9142H149.6V22.2939C149.6 24.2842 148.215 25.6944 146.008 25.6944C144.034 25.6944 142.621 24.7316 142.375 23.19H143.609C143.883 24.0602 144.774 24.6526 146.008 24.6526C147.338 24.6526 148.338 23.8362 148.338 22.2939V20.7789C147.886 21.5565 146.913 22.2551 145.542 22.2551C143.526 22.2551 141.977 20.7394 141.977 18.4991C141.977 16.2453 143.527 14.7963 145.542 14.7963" fill="#4A47D2"/>
</svg>
